<?xml version="1.0" encoding="UTF-8"?>
<!DOCTYPE svg PUBLIC "-//W3C//DTD SVG 1.0//EN" "http://www.w3.org/TR/2001/REC-SVG-20010904/DTD/svg10.dtd">
<!-- Creator: CorelDRAW X8 -->
<svg xmlns="http://www.w3.org/2000/svg" xml:space="preserve" width="24px" height="24px" version="1.0" style="shape-rendering:geometricPrecision; text-rendering:geometricPrecision; image-rendering:optimizeQuality; fill-rule:evenodd; clip-rule:evenodd"
viewBox="0 0 1897 1897"
 xmlns:xlink="http://www.w3.org/1999/xlink">
 <defs>
  <style type="text/css">
   <![CDATA[
    .fil0 {fill:white;fill-rule:nonzero}
   ]]>
  </style>
 </defs>
 <g id="Camada_x0020_1">
  <metadata id="CorelCorpID_0Corel-Layer"/>
  <path class="fil0" d="M1849 782c26,0 48,-22 48,-48l0 -172c0,-15 -8,-29 -21,-38l1 -1 -905 -517 -5 -2 0 0c-6,-3 -12,-4 -19,-4 -6,0 -12,2 -19,5l-1 -1 -904 517 -4 3 0 0c-12,9 -20,23 -20,38l0 172c0,26 21,48 48,48l124 0 0 762 -38 0c-19,0 -36,11 -44,28l0 0 -88 262 -1 5 0 0c0,3 -1,6 -1,10 0,26 21,47 48,47l1801 0c26,0 48,-21 48,-47 0,-4 -1,-7 -2,-11l1 0 -88 -262 -2 -4 0 0c-8,-17 -24,-28 -43,-28l-38 0 0 -762 124 0zm-1735 1019l54 -162 1561 0 54 162 -1669 0zm153 -1019l162 0 0 762 -162 0 0 -762zm257 0l162 0 0 762 -162 0 0 -762zm258 0l333 0 0 762 -333 0 0 -762zm428 0l162 0 0 762 -162 0 0 -762zm258 0l161 0 0 762 -161 0 0 -762zm333 -96l-1706 0 0 -76 1706 0 0 76zm-1574 -171l721 -412 721 412 -1442 0z"/>
 </g>
</svg>
