<svg xmlns="http://www.w3.org/2000/svg" xml:space="preserve" width="24px" height="24px" version="1.0" style="shape-rendering:geometricPrecision; text-rendering:geometricPrecision; image-rendering:optimizeQuality; fill-rule:evenodd; clip-rule:evenodd"
viewBox="0 0 1897 1897"
 xmlns:xlink="http://www.w3.org/1999/xlink">
 <defs>
  <style type="text/css">
   <![CDATA[
    .fil0 {fill:white;fill-rule:nonzero}
   ]]>
  </style>
 </defs>
 <g id="Camada_x0020_1">
  <metadata id="CorelCorpID_0Corel-Layer"/>
  <g id="_2653392453552">
   <path class="fil0" d="M518 948c74,0 134,-60 134,-134 0,-73 -60,-133 -134,-133 -73,0 -133,60 -133,133 0,74 60,134 133,134z"/>
   <g>
    <path class="fil0" d="M1675 105l-1454 0c-122,0 -221,104 -221,233l0 982c0,128 99,233 221,233l69 0c35,0 68,17 94,49l173 175c10,9 23,15 36,15l2 0 0 0c14,-1 27,-7 36,-18l3 -3c16,-18 88,-101 148,-170 28,-31 61,-48 94,-48l799 0c122,0 222,-105 222,-233l0 -982c0,-129 -100,-233 -222,-233zm-1574 233c0,-73 54,-132 120,-132l1454 0c67,0 121,59 121,132l0 982c0,73 -54,132 -121,132l-799 0c-62,0 -122,30 -169,83 -40,45 -86,97 -116,132l-132 -132c-42,-53 -104,-83 -169,-83l-69 0c-66,0 -120,-59 -120,-132l0 -982z"/>
    <path class="fil0" d="M948 948c74,0 134,-60 134,-134 0,-73 -60,-133 -134,-133 -73,0 -133,60 -133,133 0,74 60,134 133,134z"/>
   </g>
   <path class="fil0" d="M1378 948c74,0 134,-60 134,-134 0,-73 -60,-133 -134,-133 -73,0 -133,60 -133,133 0,74 60,134 133,134z"/>
  </g>
 </g>
</svg>
