<?xml version="1.0" encoding="UTF-8"?>
<!DOCTYPE svg PUBLIC "-//W3C//DTD SVG 1.0//EN" "http://www.w3.org/TR/2001/REC-SVG-20010904/DTD/svg10.dtd">
<!-- Creator: CorelDRAW X8 -->
<svg xmlns="http://www.w3.org/2000/svg" xml:space="preserve" width="24px" height="24px" version="1.0" style="shape-rendering:geometricPrecision; text-rendering:geometricPrecision; image-rendering:optimizeQuality; fill-rule:evenodd; clip-rule:evenodd"
viewBox="0 0 1897 1897"
 xmlns:xlink="http://www.w3.org/1999/xlink">
 <defs>
  <style type="text/css">
   <![CDATA[
    .fil0 {fill:white;fill-rule:nonzero}
   ]]>
  </style>
 </defs>
 <g id="Camada_x0020_1">
  <metadata id="CorelCorpID_0Corel-Layer"/>
  <path class="fil0" d="M1743 269c-99,-99 -230,-153 -371,-153 -140,0 -272,55 -371,154l-52 52 -53 -53c-99,-99 -231,-154 -372,-154 -140,0 -271,54 -370,153 -100,100 -154,231 -154,372 0,140 55,271 154,371l756 755c10,10 24,16 38,16 13,0 27,-5 38,-16l756 -754c100,-99 154,-231 154,-371 1,-140 -53,-272 -153,-372zm-77 667l-718 715 -717 -717c-79,-78 -122,-183 -122,-294 0,-112 43,-216 121,-295 79,-78 183,-121 294,-121 112,0 217,43 295,122l91 91c22,21 56,21 77,0l90 -90c79,-79 184,-123 295,-123 111,0 215,44 294,122 79,79 122,184 122,295 0,111 -43,216 -122,295z"/>
 </g>
</svg>
