<?xml version="1.0" encoding="UTF-8"?>
<!DOCTYPE svg PUBLIC "-//W3C//DTD SVG 1.0//EN" "http://www.w3.org/TR/2001/REC-SVG-20010904/DTD/svg10.dtd">
<!-- Creator: CorelDRAW X8 -->
<svg xmlns="http://www.w3.org/2000/svg" xml:space="preserve" width="24px" height="24px" version="1.0" style="shape-rendering:geometricPrecision; text-rendering:geometricPrecision; image-rendering:optimizeQuality; fill-rule:evenodd; clip-rule:evenodd"
viewBox="0 0 1897 1897"
 xmlns:xlink="http://www.w3.org/1999/xlink">
 <defs>
  <style type="text/css">
   <![CDATA[
    .fil0 {fill:white;fill-rule:nonzero}
   ]]>
  </style>
 </defs>
 <g id="Camada_x0020_1">
  <metadata id="CorelCorpID_0Corel-Layer"/>
  <path class="fil0" d="M467 1838c-36,0 -72,-12 -102,-34 -52,-39 -77,-101 -66,-164l72 -407c3,-17 -3,-33 -15,-45l-303 -288c-48,-45 -65,-111 -45,-172 20,-63 73,-107 139,-117l420 -59c17,-3 32,-13 40,-28l188 -372c29,-57 88,-93 153,-93l0 0c66,0 124,36 153,93l0 0 189 372c7,15 22,25 40,28l419 59c66,10 119,54 139,117 20,61 3,127 -44,172l-303 288c-12,12 -18,28 -15,45l71 407c11,63 -14,125 -66,164 -53,39 -122,45 -181,15l-377 -193c-15,-8 -34,-8 -50,0l-376 193c-26,12 -53,19 -80,19zm481 -336c27,0 54,6 79,19l377 192c28,15 51,1 57,-4 8,-6 25,-22 20,-49l-71 -407c-10,-55 9,-111 50,-150l303 -288c20,-20 16,-43 13,-51 -6,-20 -22,-33 -43,-36l-420 -59c-56,-8 -104,-43 -129,-92l-188 -372c-13,-26 -40,-28 -48,-28l0 0c-8,0 -34,2 -48,28l-188 372c-25,50 -73,84 -129,92l-419 59c-21,3 -37,16 -44,36 -2,8 -7,31 14,51l303 288c41,39 60,95 50,150l-72 407c-5,27 12,43 20,49 6,5 30,19 58,4l376 -192c25,-13 52,-19 79,-19z"/>
 </g>
</svg>
