<?xml version="1.0" encoding="UTF-8"?>
<!DOCTYPE svg PUBLIC "-//W3C//DTD SVG 1.0//EN" "http://www.w3.org/TR/2001/REC-SVG-20010904/DTD/svg10.dtd">
<!-- Creator: CorelDRAW X8 -->
<svg xmlns="http://www.w3.org/2000/svg" xml:space="preserve" width="24px" height="24px" version="1.0" style="shape-rendering:geometricPrecision; text-rendering:geometricPrecision; image-rendering:optimizeQuality; fill-rule:evenodd; clip-rule:evenodd"
viewBox="0 0 1897 1897"
 xmlns:xlink="http://www.w3.org/1999/xlink">
 <defs>
  <style type="text/css">
   <![CDATA[
    .fil0 {fill:white;fill-rule:nonzero}
   ]]>
  </style>
 </defs>
 <g id="Camada_x0020_1">
  <metadata id="CorelCorpID_0Corel-Layer"/>
  <path class="fil0" d="M180 1897c-99,0 -180,-81 -180,-181l0 -1535c0,-100 81,-181 180,-181l1536 0c100,0 181,81 181,181l0 1535c0,100 -81,181 -181,181l-1536 0zm0 -1792c-41,0 -75,34 -75,76l0 1535c0,42 34,76 75,76l1536 0c42,0 76,-34 76,-76l0 -1535c0,-42 -34,-76 -76,-76l-1536 0zm683 1493c-79,0 -149,-52 -172,-128l-383 0c-28,0 -52,-24 -52,-53 0,-28 24,-52 52,-52l383 0c23,-76 93,-128 172,-128 79,0 149,52 172,128l553 0c29,0 53,24 53,52 0,29 -24,53 -53,53l-553 0c-23,76 -93,128 -172,128zm0 -256c-42,0 -75,34 -75,75 0,42 33,76 75,76 42,0 75,-34 75,-76 0,-41 -33,-75 -75,-75zm427 -213c-80,0 -149,-53 -172,-128l-810 0c-28,0 -52,-24 -52,-53 0,-29 24,-52 52,-52l810 0c23,-76 92,-128 172,-128 79,0 148,52 172,128l126 0c29,0 53,23 53,52 0,29 -24,53 -53,53l-126 0c-24,75 -93,128 -172,128zm0 -256c-42,0 -76,34 -76,75 0,42 34,76 76,76 41,0 75,-34 75,-76 0,-41 -34,-75 -75,-75zm-598 -213c-79,0 -149,-53 -172,-128l-212 0c-28,0 -52,-24 -52,-53 0,-29 24,-52 52,-52l212 0c23,-76 93,-128 172,-128 80,0 149,52 172,128l724 0c29,0 53,23 53,52 0,29 -24,53 -53,53l-724 0c-23,75 -92,128 -172,128zm0 -256c-41,0 -75,33 -75,75 0,42 34,76 75,76 42,0 76,-34 76,-76 0,-42 -34,-75 -76,-75z"/>
 </g>
</svg>
