<?xml version="1.0" encoding="UTF-8"?>
<!DOCTYPE svg PUBLIC "-//W3C//DTD SVG 1.0//EN" "http://www.w3.org/TR/2001/REC-SVG-20010904/DTD/svg10.dtd">
<!-- Creator: CorelDRAW X8 -->
<svg xmlns="http://www.w3.org/2000/svg" xml:space="preserve" width="24px" height="24px" version="1.0" style="shape-rendering:geometricPrecision; text-rendering:geometricPrecision; image-rendering:optimizeQuality; fill-rule:evenodd; clip-rule:evenodd"
viewBox="0 0 1897 1897"
 xmlns:xlink="http://www.w3.org/1999/xlink">
 <defs>
  <style type="text/css">
   <![CDATA[
    .fil0 {fill:white;fill-rule:nonzero}
   ]]>
  </style>
 </defs>
 <g id="Camada_x0020_1">
  <metadata id="CorelCorpID_0Corel-Layer"/>
  <path class="fil0" d="M1880 1800l-441 -441c131,-150 203,-341 203,-538 0,-453 -368,-821 -821,-821 -453,0 -821,368 -821,821 0,453 368,821 821,821 197,0 388,-72 538,-203l441 441c11,11 25,17 40,17 31,0 57,-26 57,-57 0,-15 -6,-29 -17,-40zm-1059 -272c-390,0 -708,-317 -708,-707 0,-390 318,-708 708,-708 390,0 707,318 707,708 0,390 -317,707 -707,707z"/>
 </g>
</svg>
